HIERARCHY
ROOT Hips
{
	OFFSET 0.00000 0.00000 0.00000
	CHANNELS 6 Xposition Yposition Zposition Zrotation Yrotation Xrotation 
	JOINT LHipJoint
	{
		OFFSET 0 0 0
		CHANNELS 3 Zrotation Yrotation Xrotation
		JOINT LeftHip
		{
			OFFSET 1.91541 -1.65633 0.85440
			CHANNELS 3 Zrotation Yrotation Xrotation
			JOINT LeftKnee
			{
				OFFSET 2.40910 -6.61896 0.00000
				CHANNELS 3 Zrotation Yrotation Xrotation
				JOINT LeftAnkle
				{
					OFFSET 2.77800 -7.63250 0.00000
					CHANNELS 3 Zrotation Yrotation Xrotation
					JOINT LeftToe
					{
						OFFSET 0.19516 -0.53621 1.89392
						CHANNELS 3 Zrotation Yrotation Xrotation
						End Site
						{
							OFFSET 0.00000 -0.00000 0.99107
						}
					}
				}
			}
		}
	}
	JOINT RHipJoint
	{
		OFFSET 0 0 0
		CHANNELS 3 Zrotation Yrotation Xrotation
		JOINT RightHip
		{
			OFFSET -1.74984 -1.65633 0.85439
			CHANNELS 3 Zrotation Yrotation Xrotation
			JOINT RightKnee
			{
				OFFSET -2.39569 -6.58210 0.00000
				CHANNELS 3 Zrotation Yrotation Xrotation
				JOINT RightAnkle
				{
					OFFSET -2.73118 -7.50387 0.00000
					CHANNELS 3 Zrotation Yrotation Xrotation
					JOINT RightToe
					{
						OFFSET -0.19068 -0.52390 2.09946
						CHANNELS 3 Zrotation Yrotation Xrotation
						End Site
						{
							OFFSET -0.00000 -0.00000 1.08860
						}
					}
				}
			}
		}
	}
	JOINT lowerback
	{
		OFFSET 0 0 0
		CHANNELS 3 Zrotation Yrotation Xrotation
		JOINT Chest
		{
			OFFSET -0.09682 2.03828 -0.28043
			CHANNELS 3 Zrotation Yrotation Xrotation
			JOINT Chest2
			{
				OFFSET -0.01078 2.01900 0.12441
				CHANNELS 3 Zrotation Yrotation Xrotation
				JOINT lowerneck
				{
					OFFSET 0 0 0
					CHANNELS 3 Zrotation Yrotation Xrotation
					JOINT Neck
					{
						OFFSET 0.03765 1.69444 0.15937
						CHANNELS 3 Zrotation Yrotation Xrotation
						JOINT Head
						{
							OFFSET -0.03952 1.65821 -0.08152
							CHANNELS 3 Zrotation Yrotation Xrotation
							End Site
							{
								OFFSET -0.01790 1.82532 -0.05295
							}
						}
					}
				}
				JOINT LeftCollar
				{
					OFFSET 0 0 0
					CHANNELS 3 Zrotation Yrotation Xrotation
					JOINT LeftShoulder
					{
						OFFSET 3.02434 1.50701 -0.08048
CHANNELS 3 Zrotation Xrotation Yrotation
						JOINT LeftElbow
						{
OFFSET 0 -5.790160 0.000000
CHANNELS 3 Zrotation Xrotation Yrotation
							JOINT LeftWrist
							{
OFFSET 0 -3.483140 0.000000
CHANNELS 3 Zrotation Xrotation Yrotation
								JOINT lhand
								{
									OFFSET 0 0 0
CHANNELS 3 Zrotation Xrotation Yrotation
									JOINT LFingers
									{
OFFSET 0 -0.587060 0.000000
CHANNELS 3 Zrotation Xrotation Yrotation
										End Site
										{
OFFSET 0 -0.473310 0.000000
										}
									}
								}
								JOINT LThumb
								{
OFFSET 0 0.000000 0.000000
CHANNELS 3 Zrotation Xrotation Yrotation
									End Site
									{
OFFSET 0 -0.480530 0.480530
									}
								}
							}
						}
					}
				}
				JOINT RightCollar
				{
					OFFSET 0 0 0
					CHANNELS 3 Zrotation Yrotation Xrotation
					JOINT RightShoulder
					{
						OFFSET -3.34016 1.06220 0.01684
CHANNELS 3 Zrotation Xrotation Yrotation
						JOINT RightElbow
						{
OFFSET 0 -5.698220 -0.000000
CHANNELS 3 Zrotation Xrotation Yrotation
							JOINT RightWrist
							{
OFFSET 0 -3.580770 0.000000
CHANNELS 3 Zrotation Xrotation Yrotation
								JOINT rhand
								{
									OFFSET 0 0 0
CHANNELS 3 Zrotation Xrotation Yrotation
									JOINT RFingers
									{
OFFSET 0 -0.620160 0.000000
CHANNELS 3 Zrotation Xrotation Yrotation
										End Site
										{
OFFSET 0 -0.499990 0.000000
										}
									}
								}
								JOINT RThumb
								{
OFFSET 0 0.000000 0.000000
CHANNELS 3 Zrotation Xrotation Yrotation
									End Site
									{
OFFSET 0 -0.507620 0.507620
									}
								}
							}
						}
					}
				}
			}
		}
	}
}
MOTION
Frames: 12
Frame Time: 0.008333333333333333
8.533100 16.956200 -14.431100 5.897300 -3.609600 5.527000 0.000000 0.000000 0.000000 -25.618600 -0.131000 12.085700 0.756600 5.555200 15.499000 0.530600 -1.861100 -13.244700 1.475300 -7.675100 -21.731400 0.000000 0.000000 0.000000 10.049000 16.425900 -36.154700 -2.980900 -10.664000 31.154900 0.556400 -13.373300 -7.951200 -0.140900 2.419000 -6.665100 -7.070800 -0.462600 3.419600 0.010200 -0.998500 -2.410000 4.048600 -0.283100 -4.313300 3.826400 4.610400 -8.030200 -3.107500 6.180400 13.527600 -1.145000 2.991300 5.618400 -0.000000 -0.000000 0.000000 16.454600 10.144900 -44.608000 40.928600 -48.610500 19.133000 19.228700 -30.032900 20.742400 0.000000 0.000000 0.000000 -7.125000 0.000000 0.000000 -5.941000 8.220600 -5.058500 -0.000000 -0.000000 0.000000 -7.957600 19.489800 38.326800 -19.107600 -29.552200 -5.083800 -16.780300 2.421700 30.370000 0.000000 0.000000 0.000000 7.125000 0.000000 -0.000000 17.035400 60.639000 -6.606000
8.398801 16.929938 -14.084729 6.058793 -3.830938 5.230366 0.000000 0.000000 0.000000 -25.348763 0.057645 10.143376 1.348371 7.342378 20.737817 0.381968 -1.307772 -11.276835 1.309359 -7.239360 -20.430329 0.000000 0.000000 0.000000 10.871582 15.205167 -36.349665 -3.405497 -11.323525 33.379731 0.397771 -11.441967 -7.249462 -0.008817 0.488040 -1.341254 -7.228680 -0.432868 3.413626 -0.017772 -0.968309 -2.414482 4.106010 -0.263541 -4.317684 3.934027 4.684717 -6.954113 -3.369614 6.321580 12.866503 -1.265028 3.064060 5.246485 0.000000 0.000000 0.000000 15.757914 10.739086 -44.562712 38.771427 -47.322353 17.531372 18.589774 -29.785836 21.384049 0.000000 0.000000 0.000000 -7.125000 0.000000 0.000000 -6.392324 7.647044 -5.518899 0.000000 0.000000 0.000000 -7.854324 19.433841 38.311543 -18.785777 -29.151597 -4.926059 -16.905260 2.538650 30.174240 0.000000 0.000000 0.000000 7.125000 0.000000 0.000000 16.759271 60.481424 -6.433083
8.271097 16.940490 -13.729252 6.145844 -4.330656 4.800090 0.000000 0.000000 0.000000 -25.122600 0.398443 7.787705 2.183434 9.225594 26.512836 0.172855 0.416140 -7.961369 0.970511 -6.271509 -17.574374 0.000000 0.000000 0.000000 11.767106 14.491916 -35.675266 -3.728673 -11.789842 34.993176 0.238446 -9.477920 -7.673231 -0.068507 -1.635651 4.500936 -7.057199 -0.226438 3.505161 -0.253712 -0.698586 -2.366523 3.745709 -0.138472 -4.355869 3.837289 4.611021 -6.609558 -3.108889 6.214226 13.044432 -1.183240 3.026983 5.227836 0.000000 0.000000 0.000000 15.187041 11.477865 -44.196576 36.709266 -45.993261 16.031059 19.196786 -28.736335 22.139664 0.000000 0.000000 0.000000 -7.125000 0.000000 0.000000 -6.062911 6.780174 -5.333982 0.000000 0.000000 0.000000 -7.614500 19.617322 38.261623 -18.796660 -29.165185 -4.931371 -16.748018 2.963460 31.308655 0.000000 0.000000 0.000000 7.125000 0.000000 0.000000 17.785136 61.525637 -7.281931
8.130541 16.970394 -13.390149 5.564367 -4.366230 4.486183 0.000000 0.000000 0.000000 -23.960207 0.432786 5.041985 3.262356 11.097190 32.620683 0.008692 2.346447 -3.769999 0.889079 -6.008696 -16.810094 0.000000 0.000000 0.000000 13.347005 13.838000 -34.511545 -3.899933 -12.025952 35.824056 0.124606 -8.349834 -8.949949 -0.094833 -1.980917 5.453038 -6.559025 -0.249776 3.539832 -0.107209 -0.693796 -2.234299 3.618315 -0.155802 -4.237772 4.490175 4.810854 -7.075361 -3.581541 6.478745 13.783832 -1.397107 3.148044 5.584300 0.000000 0.000000 0.000000 14.644515 11.953014 -43.974384 34.790167 -44.658971 14.666584 17.800388 -27.273821 20.900979 0.000000 0.000000 0.000000 -7.125000 0.000000 0.000000 -6.863142 8.252478 -5.849745 0.000000 0.000000 0.000000 -7.681401 19.196762 38.376794 -18.596792 -28.914574 -4.834327 -15.555584 2.491427 30.840858 0.000000 0.000000 0.000000 7.125000 0.000000 0.000000 18.713969 60.791780 -7.350641
8.004482 17.001380 -13.060981 5.252204 -4.304421 4.251339 0.000000 0.000000 0.000000 -23.384959 -0.600861 2.373716 4.502862 12.795324 38.616332 -0.056609 4.267918 -0.981215 0.375839 -3.894657 -10.786178 0.000000 0.000000 0.000000 14.577731 12.803730 -33.426483 -3.995847 -12.154883 36.282106 0.026870 -7.319470 -9.803566 -0.079340 -1.815234 4.995365 -6.167910 -0.389920 3.613031 -0.058038 -0.861284 -2.187852 3.462085 -0.251403 -4.214220 4.049798 4.795294 -6.791792 -3.450389 6.507667 13.916712 -1.289126 3.151501 5.559104 0.000000 0.000000 0.000000 13.909770 12.490243 -43.328574 32.956094 -43.295012 13.392408 15.805863 -25.566834 20.273594 0.000000 0.000000 0.000000 -7.125000 0.000000 0.000000 -8.106123 9.145640 -6.784349 0.000000 0.000000 0.000000 -7.883755 18.771597 38.809450 -18.515399 -28.812100 -4.795098 -15.199803 2.566389 30.088950 0.000000 0.000000 0.000000 7.125000 0.000000 0.000000 18.527354 59.997320 -6.922492
7.875416 17.043739 -12.739369 4.758598 -4.253367 4.205528 0.000000 0.000000 0.000000 -22.587603 -1.682610 -0.673547 5.887612 14.318445 44.528702 -0.083096 6.124634 1.369196 0.050105 -1.444905 -3.973926 0.000000 0.000000 0.000000 15.893767 12.133210 -32.243052 -4.012766 -12.177355 36.362340 -0.045860 -6.728373 -10.648514 -0.048886 -1.426980 3.924494 -5.746686 -0.402571 3.435025 0.072959 -0.837649 -2.175651 3.357562 -0.253347 -4.104206 4.450580 4.864281 -6.574125 -4.009137 6.647002 14.018999 -1.521594 3.204612 5.591735 0.000000 0.000000 0.000000 13.356461 12.914277 -43.017952 31.338408 -42.013297 12.295773 15.577658 -24.923087 20.596347 0.000000 0.000000 0.000000 -7.125000 0.000000 0.000000 -8.266233 8.845886 -6.971574 0.000000 0.000000 0.000000 -8.193392 18.328078 39.037034 -18.598765 -28.917007 -4.835280 -14.694532 2.592179 30.710788 0.000000 0.000000 0.000000 7.125000 0.000000 0.000000 19.536075 60.463403 -7.534704
7.764534 17.093848 -12.435036 4.136424 -4.216679 4.224863 0.000000 0.000000 0.000000 -21.815832 -2.649287 -3.939815 7.348851 15.615315 50.175858 -0.106529 7.184241 1.926334 0.230515 -3.087916 -8.523758 0.000000 0.000000 0.000000 17.217357 11.698305 -30.895742 -3.964655 -12.113186 36.133600 -0.127492 -6.325318 -11.788154 -0.051932 -1.469869 4.042667 -4.943236 -0.431620 3.389440 0.158468 -0.827152 -2.139284 2.993541 -0.271651 -4.046626 4.096763 4.965685 -6.583184 -3.571141 6.765124 14.094548 -1.318479 3.272786 5.594928 0.000000 0.000000 0.000000 13.004725 13.012068 -43.512916 29.853364 -40.765753 11.314342 13.301706 -24.534595 19.304624 0.000000 0.000000 0.000000 -7.125000 0.000000 0.000000 -9.686919 10.403245 -7.894635 0.000000 0.000000 0.000000 -8.697310 17.736204 39.984204 -18.932824 -29.334988 -4.997949 -15.153846 2.278703 30.607163 0.000000 0.000000 0.000000 7.125000 0.000000 0.000000 18.965300 60.475401 -7.310376
7.659873 17.121552 -12.131279 3.927490 -4.525552 4.096040 0.000000 0.000000 0.000000 -21.495681 -3.575350 -6.900665 8.661787 16.581887 54.908052 -0.148945 7.321613 0.130745 0.220105 -3.013303 -8.316292 0.000000 0.000000 0.000000 18.085639 11.428136 -29.520751 -3.951418 -12.095471 36.070496 -0.196663 -5.959682 -12.626846 -0.029673 -1.106608 3.042230 -4.747490 -0.293428 3.376230 0.165571 -0.629538 -2.067694 2.877271 -0.181603 -3.982910 4.413093 5.230061 -7.107939 -3.786531 7.119212 14.633315 -1.389515 3.436364 5.887487 0.000000 0.000000 0.000000 12.491403 13.115547 -43.396736 28.276243 -39.367559 10.299141 11.657135 -22.928051 19.393239 0.000000 0.000000 0.000000 -7.125000 0.000000 0.000000 -10.749266 10.478287 -8.775369 0.000000 0.000000 0.000000 -9.007742 17.230311 39.960187 -19.313636 -29.806351 -5.185867 -15.200689 1.952592 30.363463 0.000000 0.000000 0.000000 7.125000 0.000000 0.000000 18.730291 60.256754 -7.118026
7.557934 17.159294 -11.838944 3.812717 -4.896102 4.039064 0.000000 0.000000 0.000000 -21.308694 -4.376632 -9.846450 9.758918 17.270024 58.676675 -0.135525 6.649340 -1.019811 0.082775 -1.847820 -5.085464 0.000000 0.000000 0.000000 18.801904 11.283585 -28.014594 -3.861105 -11.973094 35.637182 -0.280658 -5.557949 -13.588489 -0.052649 -1.468722 4.039681 -4.714672 -0.094299 3.327138 0.202343 -0.358132 -2.076293 2.878549 -0.046696 -3.987071 4.422376 4.966004 -6.577583 -4.136111 6.833235 14.671460 -1.536935 3.280780 5.807880 0.000000 0.000000 0.000000 12.013198 13.170449 -43.734429 26.741339 -37.930157 9.340181 10.702439 -21.532093 19.196141 0.000000 0.000000 0.000000 -7.125000 0.000000 0.000000 -11.363111 10.763093 -9.229118 0.000000 0.000000 0.000000 -9.531091 16.787404 39.999816 -19.876060 -30.491960 -5.468697 -15.400327 1.702224 30.401370 0.000000 0.000000 0.000000 7.125000 0.000000 0.000000 18.545821 60.339668 -7.082210
7.439469 17.211472 -11.535820 3.021547 -5.551382 3.520163 0.000000 0.000000 0.000000 -20.442428 -4.751419 -12.222201 10.686672 17.777449 61.758692 -0.088222 5.290910 -2.474295 0.182793 -2.742092 -7.562127 0.000000 0.000000 0.000000 20.432516 11.622861 -25.287820 -3.641482 -11.667142 34.564613 -0.337733 -5.628908 -14.488316 -0.080217 -1.826379 5.026141 -4.209102 0.227745 3.623599 0.396869 0.093161 -1.975025 2.766103 0.167320 -4.085304 4.291252 4.969268 -6.605775 -3.924986 6.837031 15.106392 -1.444942 3.287071 5.937588 0.000000 0.000000 0.000000 11.781155 13.765314 -44.121344 25.804439 -37.014432 8.769910 10.028366 -20.979811 18.981311 0.000000 0.000000 0.000000 -7.125000 0.000000 0.000000 -11.797165 11.035366 -9.530563 0.000000 0.000000 0.000000 -9.717289 16.658350 39.126001 -20.653485 -31.421530 -5.868303 -17.297119 2.202288 27.900780 0.000000 0.000000 0.000000 7.125000 0.000000 0.000000 14.839339 58.367910 -4.937176
7.344379 17.263415 -11.257692 2.699313 -5.909154 3.568355 0.000000 0.000000 0.000000 -20.156117 -5.988130 -15.038876 11.406976 18.128552 64.096188 -0.058227 4.612584 -3.526386 0.116314 -2.197894 -6.053069 0.000000 0.000000 0.000000 21.386016 11.373569 -23.531862 -3.447231 -11.386049 33.593239 -0.382060 -5.480690 -14.977490 -0.080939 -1.834763 5.049268 -3.878521 0.392939 3.591896 0.368299 0.331283 -2.004267 2.533539 0.277224 -4.113191 4.379563 5.006276 -6.571482 -4.030540 6.887853 14.917591 -1.490776 3.311063 5.881411 0.000000 0.000000 0.000000 11.693266 13.978948 -44.426511 24.762949 -35.960703 8.150269 9.381919 -20.661369 19.179210 0.000000 0.000000 0.000000 -7.125000 0.000000 0.000000 -12.212917 10.895274 -9.918206 0.000000 0.000000 0.000000 -10.021328 16.021813 39.122581 -21.150505 -32.003546 -6.129481 -18.819804 2.202317 27.812958 0.000000 0.000000 0.000000 7.125000 0.000000 0.000000 13.149585 58.626360 -4.429959
7.267018 17.277251 -10.970602 2.806168 -6.921024 3.271266 0.000000 0.000000 0.000000 -20.604367 -6.151228 -17.414050 11.779637 18.295923 65.288455 -0.019552 3.942416 -4.695348 0.382044 -3.963158 -10.973924 0.000000 0.000000 0.000000 21.825022 11.275681 -21.843985 -3.363667 -11.261731 33.167827 -0.457702 -4.915452 -15.529266 -0.075193 -1.759478 4.841755 -3.875779 0.693976 3.576435 0.179715 0.729338 -1.882337 2.308599 0.468255 -4.004086 4.636570 5.069447 -6.359162 -4.282958 6.985429 14.806694 -1.610029 3.358618 5.832569 0.000000 0.000000 0.000000 11.430462 14.293782 -44.059114 23.872563 -35.028795 7.633455 7.526705 -19.913887 18.009445 0.000000 0.000000 0.000000 -7.125000 0.000000 0.000000 -13.425543 12.188145 -10.590804 0.000000 0.000000 0.000000 -10.199253 15.399332 38.369347 -21.720421 -32.659420 -6.434405 -19.450169 2.547727 28.145913 0.000000 0.000000 0.000000 7.125000 0.000000 0.000000 12.660152 59.101446 -4.398594
